<?xml version="1.0" encoding="UTF-8"?>
<svg xmlns="http://www.w3.org/2000/svg" version="1.1" viewBox="0 0 100 80">
  <defs>
    <style>
      .cls-1 {
        fill: none;
        stroke: #fffae5;
        stroke-miterlimit: 10;
      }

      .cls-2 {
        fill: #f97845;
      }

      .cls-2, .cls-3, .cls-4, .cls-5, .cls-6, .cls-7, .cls-8, .cls-9, .cls-10, .cls-11 {
        stroke-width: 0px;
      }

      .cls-3 {
        fill: #dfe4eb;
      }

      .cls-4 {
        fill: #000;
      }

      .cls-5 {
        fill: #f0f0f0;
      }

      .cls-6 {
        fill: #a7bd92;
      }

      .cls-7 {
        fill: #ab0102;
      }

      .cls-8 {
        fill: #fff;
      }

      .cls-9 {
        fill: #bac2bc;
      }

      .cls-10 {
        fill: #414242;
      }

      .cls-11 {
        fill: #fffae5;
      }
    </style>
  </defs>
  <g id="Layer_2" data-name="Layer 2">
    <rect class="cls-10" x="33" y="4" width="39" height="76" rx="5.4" ry="5.4"/>
    <rect class="cls-5" x="35.1" y="7" width="34.6" height="70" rx="5.4" ry="5.4"/>
  </g>
  <g id="Layer_4" data-name="Layer 4">
    <rect class="cls-6" x="37" y="22" width="31" height="44" rx="1.8" ry="1.8"/>
  </g>
  <g id="Layer_5" data-name="Layer 5">
    <rect class="cls-10" x="49" y="14" width="9" height="1"/>
    <rect class="cls-10" x="38" y="69" width="29" height="1"/>
    <rect class="cls-10" x="38" y="72" width="13" height="1"/>
    <rect class="cls-10" x="49" y="16" width="5" height="1"/>
    <path class="cls-9" d="M46,16c0,.8-.3,1.5-.8,2.1-.5.6-1.3.9-2.2.9s-1.6-.3-2.1-.9c-.5-.5-.9-1.3-.9-2.1,0-1.7,1.3-3,3-3s3,1.3,3,3Z"/>
    <circle class="cls-8" cx="43" cy="15.1" r="1.2"/>
    <path class="cls-8" d="M45.2,18.1c-.5.6-1.3.9-2.2.9s-1.6-.3-2.1-.9c.4-.9,1.2-1.6,2.2-1.6s1.8.6,2.2,1.5Z"/>
  </g>
  <g id="Layer_6" data-name="Layer 6">
    <path class="cls-2" d="M14.2,14.3l.6,2c.1.4.5.6.9.5l2-.7c.2,0,.3,0,.5,0l4.2,1.7c.3.1.7,0,.9-.3l4.3-7.8c.2-.4,0-.8-.3-1L14.8,2.5c-.4-.2-.8,0-1,.3l-4,7.6c-.2.3,0,.8.3,1l3.8,2.5c.1,0,.3.2.3.4Z"/>
    <path class="cls-3" d="M89.5,2.8l.2,1c.2,1.3-.6,2.5-1.8,2.9l-6.8,2c-.7.2-1.2.7-1.6,1.3l-.5,1-1.4-5.5c-.3-1.4.5-2.8,1.9-3.1l6.8-1.7c1.5-.4,2.9.6,3.1,2.1Z"/>
    <path class="cls-3" d="M1.9,37.6l.2,1.7c.3,2,2,3.6,4,3.6h11.4c1.1,0,2.2.6,3,1.4l1.2,1.3-.4-9.1c0-2.3-2-4-4.3-3.9l-11.3.5c-2.4,0-4.2,2.2-3.9,4.6Z"/>
    <path class="cls-2" d="M11.5,65.3l1,6.2c.3,1.9,2.1,3.3,4,3l7.4-1c2-.3,3.4-2.2,3-4.2l-1.2-6.7c-.4-2-2.3-3.3-4.3-2.9l-7.1,1.5c-1.9.4-3.1,2.2-2.8,4Z"/>
    <path class="cls-2" d="M85.2,53l-2.4,6.1c-.4,1.1,0,2.3,1.1,2.9l7.8,3.9c1.2.6,2.7,0,3.2-1.3l2.5-7.4c.4-1.2-.2-2.5-1.4-2.9l-7.8-2.6c-1.1-.4-2.4.2-2.8,1.3Z"/>
    <path class="cls-4" d="M57.3,60.6"/>
    <path class="cls-4" d="M56.7,62.9"/>
    <path class="cls-7" d="M40.5,49.5"/>
  </g>
  <g id="Layer_7" data-name="Layer 7">
    <path class="cls-11" d="M24,10.5c0,1.3-1,2.4-2.3,2.5l-4.9,1-1.3-4c-.3-.4-.5-.9-.5-1.5,0-1.4,1.1-2.5,2.5-2.5s2.5,1.1,2.5,2.5c.4-.3.9-.5,1.5-.5,1.4,0,2.5,1.1,2.5,2.5Z"/>
    <path class="cls-8" d="M47,39.1v8.8c0,1.8,1.9,2.9,3.4,2l9.1-5c1.4-.8,1.3-2.8-.2-3.5l-9.8-4.1c-1.2-.5-2.5.4-2.5,1.7Z"/>
    <circle class="cls-11" cx="92.5" cy="56.5" r="1.5"/>
    <circle class="cls-11" cx="86.5" cy="57.5" r="1.5"/>
    <circle class="cls-11" cx="90.5" cy="61.5" r="1.5"/>
    <polyline class="cls-1" points="90.5 61.5 86.5 57.5 92.5 56.5"/>
    <path class="cls-11" d="M23.7,70.5l-3.5-1.3c-.3-.1-.6,0-.9.2l-2.3,2.6c-.4.4-1.1.3-1.3-.3l-1.3-4.9c-.3-1,.3-2,1.3-2.2l5.6-1.3c1-.2,1.9.4,2.2,1.4l1.1,5c.1.6-.4,1.1-1,.9Z"/>
    <rect class="cls-10" x="5.1" y="38.1" width="9" height="1" transform="translate(-1.8 .5) rotate(-2.7)"/>
    <rect class="cls-10" x="5" y="36" width="14" height="1" transform="translate(-1.7 .6) rotate(-2.7)"/>
  </g>
</svg>