<?xml version="1.0" encoding="UTF-8"?>
<svg id="Layer_1" data-name="Layer 1" xmlns="http://www.w3.org/2000/svg" version="1.1" viewBox="0 0 1000 1000">
  <defs>
    <style>
      .cls-1 {
        fill: #1e1e1e;
      }

      .cls-1, .cls-2, .cls-3, .cls-4 {
        stroke-width: 0px;
      }

      .cls-2 {
        fill: #000;
      }

      .cls-3 {
        fill: #e9e9e8;
      }

      .cls-4 {
        fill: #fff;
      }
    </style>
  </defs>
  <g id="Layer_1-2" data-name="Layer 1">
    <polygon class="cls-2" points="822 135 764.26 789.24 500.5 864.63 238 790 179 135 822 135"/>
    <polygon class="cls-1" points="500.5 188.44 764.26 188.44 715 747 500.5 807.26 500.5 188.44"/>
  </g>
  <g id="Layer_3" data-name="Layer 3">
    <polygon class="cls-4" points="502.65 265.48 709 266 701 347 502.65 431 502.65 351.74 512.5 347.5 502.65 347.02 502.65 265.48"/>
    <polygon class="cls-4" points="502.65 645.3 502.65 734.3 672 685 693.5 432.5 502.65 432.5 502.65 512.37 602.5 512.5 596.5 618.5 502.65 645.3"/>
    <polygon class="cls-3" points="502.65 265.48 502.65 347.02 302 347 291.73 265.48 502.65 265.48"/>
    <polygon class="cls-3" points="502.65 351.74 309 432 316 512 502.65 512.37 502.65 351.74"/>
    <polygon class="cls-3" points="502.65 645.3 502.65 734.3 332 684 321 557 404.21 557 411 623 502.65 645.3"/>
  </g>
</svg>