<?xml version="1.0" encoding="UTF-8"?>
<svg id="Layer_2" data-name="Layer 2" xmlns="http://www.w3.org/2000/svg" version="1.1" viewBox="0 0 100 80">
  <defs>
    <style>
      .cls-1 {
        fill: #000;
      }

      .cls-1, .cls-2 {
        stroke-width: 0px;
      }

      .cls-2 {
        fill: #a7bd92;
      }
    </style>
  </defs>
  <path class="cls-1" d="M68.1,10h-10s19.9,7,23,26h3.5s-.5-14-16.5-26Z"/>
  <path class="cls-1" d="M50,25.2v27c-.8.2-1.6.7-2.1,1.4-.4.5-.7,1.1-.8,1.8l-11.1,8.7-3-7,13.9-31.8h3.1Z"/>
  <path class="cls-1" d="M69,56.8l-3,7-11.1-8.7c-.3-1.5-1.5-2.6-2.9-3v-27.1h3.1l13.9,31.8Z"/>
  <path class="cls-1" d="M54.9,55.1c0,.3,0,.6,0,.9,0,2.2-1.8,4-4,4s-4-1.8-4-4,0-.5,0-.7c.1-.7.4-1.3.8-1.8l-14.9,3.5,6.4,16h22.6l4-9.2-11.1-8.7Z"/>
  <rect class="cls-1" x="39" y="75" width="22.9" height="5"/>
  <rect class="cls-1" x="19" y="6" width="61" height="4"/>
  <rect class="cls-2" x="11" y="36" width="13" height="13" rx="2.6" ry="2.6"/>
  <rect class="cls-2" x="77" y="36" width="13" height="13" rx="2.6" ry="2.6"/>
  <rect class="cls-2" x="43" width="16" height="16" rx="2.6" ry="2.6"/>
  <path class="cls-1" d="M33,10"/>
  <path class="cls-1" d="M33,10h10s-19.9,7-23,26h-3.5s.5-14,16.5-26Z"/>
  <circle class="cls-2" cx="16.5" cy="7.5" r="6.5"/>
  <circle class="cls-2" cx="83.5" cy="7.5" r="6.5"/>
</svg>