<svg width="24" height="24" viewBox="0 0 24 24" fill="none" xmlns="http://www.w3.org/2000/svg">
<path d="M4.25 0C1.9 0 0 1.9 0 4.25V19.15C0 21.5 1.9 23.4 4.25 23.4H19.75C22.1 23.4 24 21.5 24 19.15V4.25C24 1.9 22.1 0 19.75 0H4.25ZM15.56 5.13H17.59C17.64 5.12 17.68 5.16 17.69 5.2V14.74C17.69 14.92 17.7 15.12 17.71 15.34C17.73 15.55 17.74 15.75 17.75 15.92C17.75 15.99 17.72 16.05 17.65 16.08C17.13 16.3 16.58 16.46 16.02 16.56C15.52 16.65 15 16.7 14.48 16.7C13.74 16.71 13 16.56 12.33 16.25C11.7 15.96 11.18 15.48 10.82 14.89C10.45 14.28 10.27 13.52 10.27 12.61C10.26 11.87 10.45 11.14 10.82 10.5C11.2 9.85 11.75 9.31 12.41 8.95C13.11 8.56 13.95 8.37 14.94 8.37C14.99 8.37 15.06 8.37 15.15 8.38C15.24 8.39 15.34 8.39 15.46 8.4V5.24C15.46 5.17 15.49 5.13 15.56 5.13ZM6.63 5.99H8.58C8.64 5.98 8.7 6.02 8.71 6.09C8.72 6.1 8.72 6.11 8.72 6.12V16.38C8.72 16.49 8.67 16.54 8.58 16.54H6.62C6.53 16.54 6.49 16.49 6.49 16.38V6.12C6.49 6.03 6.54 5.99 6.63 5.99ZM14.86 10.23C14.47 10.23 14.08 10.31 13.73 10.49C13.39 10.66 13.1 10.91 12.88 11.23C12.66 11.55 12.55 11.98 12.55 12.5C12.54 12.85 12.6 13.2 12.72 13.53C12.82 13.8 12.97 14.04 13.17 14.24C13.36 14.42 13.59 14.56 13.85 14.64C14.12 14.73 14.4 14.77 14.68 14.77C14.83 14.77 14.97 14.76 15.1 14.75C15.23 14.76 15.35 14.74 15.46 14.7V10.3C15.2634 10.2534 15.062 10.2299 14.86 10.23Z" fill="black"/>
</svg>
