<svg width="24" height="24" viewBox="0 0 24 24" fill="none" xmlns="http://www.w3.org/2000/svg">
<path d="M19.75 0H4.25C1.9 0 0 1.9 0 4.25V19.15C0 21.5 1.9 23.4 4.25 23.4H19.75C22.1 23.4 24 21.5 24 19.15V4.25C24 1.9 22.1 0 19.75 0ZM12.76 16.389C12.76 16.44 12.731 16.479 12.7 16.51C12.6702 16.5301 12.6349 16.5402 12.599 16.539H6.26C6.15 16.539 6.1 16.478 6.1 16.359V6.14C6.09 6.07 6.14 6.01 6.21 6H8.21C8.26 5.99 8.32 6.03 8.32 6.08V14.51H12.94C13.041 14.51 13.071 14.559 13.05 14.65L12.76 16.389ZM19.01 8.53V10.48C19.01 10.56 18.96 10.59 18.85 10.59C18.201 10.55 17.55 10.67 16.96 10.93C16.76 11.02 16.57 11.14 16.42 11.3V16.4C16.42 16.5 16.38 16.54 16.29 16.54H14.34C14.26 16.55 14.19 16.5 14.18 16.421V10.84C14.18 10.6 14.18 10.35 14.17 10.09C14.16 9.83 14.16 9.57 14.15 9.31C14.14 9.09 14.1197 8.87 14.089 8.65C14.079 8.6 14.109 8.55 14.159 8.54C14.169 8.53 14.179 8.53 14.199 8.54H15.949C16.049 8.54 16.129 8.61 16.159 8.7C16.199 8.77 16.229 8.85 16.239 8.93C16.259 9.03 16.278 9.14 16.289 9.24C16.299 9.35 16.31 9.47 16.31 9.6C16.609 9.25 16.97 8.96 17.379 8.74C17.839 8.49 18.349 8.37 18.869 8.38C18.938 8.37 18.999 8.42 19.009 8.49L19.01 8.53Z" fill="black"/>
</svg>
