<?xml version="1.0" encoding="UTF-8"?>
<svg xmlns="http://www.w3.org/2000/svg" xmlns:xlink="http://www.w3.org/1999/xlink" version="1.1" viewBox="0 0 100 80">
  <defs>
    <style>
      .cls-1 {
        fill: #d2d2d2;
      }

      .cls-1, .cls-2, .cls-3, .cls-4, .cls-5, .cls-6, .cls-7, .cls-8, .cls-9, .cls-10, .cls-11, .cls-12, .cls-13, .cls-14, .cls-15, .cls-16, .cls-17, .cls-18, .cls-19, .cls-20, .cls-21 {
        stroke-width: 0px;
      }

      .cls-2 {
        fill: #f97845;
      }

      .cls-3 {
        fill: #dfe4eb;
      }

      .cls-4 {
        fill: #f1e8b9;
      }

      .cls-5 {
        fill: #777878;
      }

      .cls-6 {
        fill: #292b2e;
      }

      .cls-7 {
        fill: #000;
      }

      .cls-8 {
        fill: #f0f0f0;
      }

      .cls-9 {
        fill: #a7bd92;
      }

      .cls-10 {
        fill: #b16f2f;
      }

      .cls-11 {
        fill: #8abd9e;
      }

      .cls-12 {
        fill: #f9b577;
      }

      .cls-13 {
        fill: #b7bfc9;
      }

      .cls-14, .cls-15 {
        opacity: .3;
      }

      .cls-14, .cls-20 {
        fill: #414242;
      }

      .cls-15 {
        fill: #606060;
      }

      .cls-16 {
        fill: #848a91;
      }

      .cls-17 {
        fill: #fab400;
      }

      .cls-18 {
        fill: #c4f196;
      }

      .cls-19 {
        fill: #bac2bc;
      }

      .cls-21 {
        fill: #c80a50;
      }
    </style>
  </defs>
  <g id="Layer_3" data-name="Layer 3">
    <polygon class="cls-19" points="42 68 41 75 58.9 75 57 67 42 68"/>
    <polygon class="cls-5" points="41.6 70.6 41.9 68.5 57.3 68.4 57.9 70.6 41.6 70.6"/>
  </g>
  <g id="Layer_2" data-name="Layer 2">
    <rect class="cls-20" x="26" y="74" width="47" height="6" rx="2.6" ry="2.6"/>
    <rect class="cls-20" x="9" y="18" width="81" height="51" rx="3.8" ry="3.8"/>
  </g>
  <g id="Layer_4" data-name="Layer 4">
    <rect class="cls-9" x="12" y="21" width="75" height="39" rx="1.7" ry="1.7"/>
    <rect class="cls-8" x="81" y="63" width="6" height="3" rx="1.5" ry="1.5"/>
  </g>
  <g id="Layer_5" data-name="Layer 5">
    <rect class="cls-8" x="18" width="63" height="53" rx="1.6" ry="1.6"/>
  </g>
  <g id="Layer_6" data-name="Layer 6">
    <path class="cls-13" d="M81,1.6v7.4H18V1.6c0-.9.7-1.6,1.6-1.6h59.8c.9,0,1.6.7,1.6,1.6Z"/>
  </g>
  <g id="Layer_7" data-name="Layer 7">
    <rect class="cls-3" x="21" y="4" width="17" height="3" rx="1.5" ry="1.5"/>
    <rect class="cls-3" x="64" y="4" width="3" height="3" rx="1.5" ry="1.5"/>
    <rect class="cls-21" x="64" y="3" width="3" height="3" rx="1.5" ry="1.5"/>
    <rect class="cls-3" x="70" y="4" width="3" height="3" rx="1.5" ry="1.5"/>
    <rect class="cls-17" x="70" y="3" width="3" height="3" rx="1.5" ry="1.5"/>
    <rect class="cls-3" x="76" y="4" width="3" height="3" rx="1.5" ry="1.5"/>
    <rect class="cls-11" x="76" y="3" width="3" height="3" rx="1.5" ry="1.5"/>
    <rect class="cls-16" x="21" y="3" width="17" height="3" rx="1.5" ry="1.5"/>
  </g>
  <g id="Layer_8" data-name="Layer 8">
    <rect class="cls-1" x="24" y="14" width="52" height="18" rx="1" ry="1"/>
    <rect class="cls-1" x="24" y="34" width="15" height="15" rx="1" ry="1"/>
    <rect class="cls-1" x="42" y="34" width="15" height="15" rx="1" ry="1"/>
    <rect class="cls-1" x="61" y="34" width="15" height="15" rx="1" ry="1"/>
  </g>
  <g id="Layer_10" data-name="Layer 10">
    <path class="cls-15" d="M47.1,42.5l-3.6,1.5-2.9.9h0s-.3.1-.3.1c0,0-.2,0-.3,0-.8,0-1.5-.7-1.5-1.5s0-.5.2-.7h0s1.3-3.2,1.3-3.2l1.1-3.1,13.7-13.7.9-.9.7-.7,2.9-2.9c.2-.2.4-.2.6,0l5.5,5.5c.2.2.2.4,0,.6l-4.5,4.5h0s-13.7,13.6-13.7,13.6Z"/>
  </g>
  <g id="Layer_9" data-name="Layer 9">
    <g>
      <path class="cls-6" d="M43,42l-2.9.9h0s-.3,0-.3,0c0,0-.2,0-.3,0-.8,0-1.5-.7-1.5-1.5s0-.5.2-.7h0s1.3-3.2,1.3-3.2l3.5,4.4Z"/>
      <path class="cls-7" d="M41,34h0Z"/>
      <path class="cls-10" d="M55.1,20l-.9.9s0,0,0,0l.8-.8Z"/>
      <path class="cls-2" d="M64.9,22.4l-4.5,4.5.4-.5-5.7-6.5.7-.7,2.9-2.9c.2-.2.4-.2.6,0l5.5,5.5c.2.2.2.4,0,.6Z"/>
      <polygon class="cls-9" points="60.8 26.4 60.4 26.9 60.3 26.9 46.6 40.5 46.5 40.4 46.3 40.5 40.6 34.7 40.6 34.5 54.3 20.8 55.1 20 60.8 26.4"/>
      <polygon class="cls-4" points="46.6 40.5 43 42 39.5 37.6 40.6 34.5 42.3 36.2 45 38.9 46.6 40.5"/>
      <polygon class="cls-18" points="42.3 36.2 45 38.9 59.3 24.7 57.1 22.2 42.3 36.2"/>
    </g>
    <path class="cls-7" d="M51.5,45h0Z"/>
  </g>
  <g id="Layer_12" data-name="Layer 12">
    <path class="cls-14" d="M32.7,25.7h0c.2-.3.3-.6.3-.9,0-.8-.7-1.5-1.5-1.5s-1,.3-1.3.7h0l-6.7,6.6-.2.2s0,0,0,0c-.4.3-.6.7-.6,1.2s0,.5.2.7l7.2,7.3.2.2h0c.2.2.5.3.9.3.8,0,1.5-.7,1.5-1.5s-.3-1-.7-1.3h0s-5.7-5.8-5.7-5.8l6.2-6.1.2-.2ZM25.3,33l-.3.2.2-.2s0,0,.1,0Z"/>
    <path class="cls-14" d="M67.5,25.9l6.2,6.1-5.7,5.8h0c-.4.3-.7.7-.7,1.3,0,.8.7,1.5,1.5,1.5s.6,0,.9-.3h0c0,0,0,0,0,0l7.2-7.3c.3-.4.4-.6.4-.9,0-.5-.2-.9-.6-1.2,0,0,0,0,0,0l-.2-.2-6.7-6.6h0c-.2-.4-.7-.7-1.3-.7-.8,0-1.5.7-1.5,1.5s0,.6.3.9h0s.2.3.2.3ZM74.8,33.1l.2.2-.3-.2s0,0,.1,0Z"/>
  </g>
  <g id="Layer_11" data-name="Layer 11">
    <g>
      <path class="cls-20" d="M33.7,25.4h0c.2-.3.3-.6.3-.9,0-.8-.7-1.5-1.5-1.5s-1,.3-1.3.7h0l-6.7,6.6-.2.2s0,0,0,0c-.4.3-.6.7-.6,1.2s0,.5.2.7l7.2,7.3.2.2h0c.2.2.5.3.9.3.8,0,1.5-.7,1.5-1.5s-.3-1-.7-1.3h0s-5.7-5.8-5.7-5.8l6.2-6.1.2-.2ZM26.3,32.8l-.3.2.2-.2s0,0,.1,0Z"/>
      <path class="cls-20" d="M26.3,32.8l-.3.2.2-.2s0,0,.1,0Z"/>
      <path class="cls-12" d="M23.7,32.3"/>
      <path class="cls-12" d="M24,32.6"/>
      <path class="cls-20" d="M26.3,32.8l-.3.2"/>
    </g>
    <g>
      <path class="cls-20" d="M66.5,25.9l6.2,6.1-5.7,5.8h0c-.4.3-.7.7-.7,1.3,0,.8.7,1.5,1.5,1.5s.6,0,.9-.3h0c0,0,.2-.3.2-.3l7.2-7.3c.1-.2.2-.4.2-.7,0-.5-.2-.9-.6-1.2,0,0,0,0,0,0l-.2-.2-6.7-6.6h0c-.2-.4-.7-.7-1.3-.7-.8,0-1.5.7-1.5,1.5s0,.6.3.9h0s.2.3.2.3ZM73.8,33.1l.2.2-.3-.2s0,0,.1,0Z"/>
      <path class="cls-12" d="M72.7,32l.3.2-.2-.2s0,0-.1,0Z"/>
      <path class="cls-20" d="M75.1,31.7s0,0,0,.1l.2-.3-.2.2Z"/>
      <path class="cls-20" d="M72.7,32l.3.2-.2-.2s0,0-.1,0Z"/>
    </g>
    <image width="7" height="8" transform="translate(69 31)" xlink:href="webdesign-icon-1.png"/>
  </g>
</svg>